<?xml version="1.0" encoding="UTF-8"?>
<svg id="Capa_1" data-name="Capa 1" xmlns="http://www.w3.org/2000/svg" viewBox="0 0 319.01 665.18">
  <defs>
    <style>
      .cls-1 {
        fill: #fff;
      }

      .cls-2 {
        fill: #111;
      }

      .cls-3 {
        opacity: .61;
      }

      .cls-3,
      .cls-4 {
        fill: #5187b1;
      }

      .cls-5 {
        fill: #6393c2;
      }

      .cls-6 {
        fill: #3d7aa9;
      }

      .cls-7 {
        fill: #7ebce5;
      }

      .cls-8 {
        fill: #256a92;
      }

      .cls-9 {
        fill: #e94642;
      }

      .cls-10 {
        fill: #c1e5f8;
        opacity: .36;
      }

      .cls-11 {
        fill: #71a5cf;
      }
    </style>
  </defs>
  <g>
    <g>
      <path class="cls-6"
        d="M106.07,514.06s11.18,19.45,0,38.8c-11.18,19.34-7.81,35.1,0,30.8,7.81-4.3,4.23-16.48,10.67-16.83,6.45-.36,.36,19.69,8.24,17.55,7.88-2.15,4.97-16.47,12.15-15.04,7.19,1.43,2.89,11.46,11.49,11.1,8.6-.36,4.74-66.84-12.99-72.15-17.74-5.31,0,0,0,0,0,0-26.63-8.66-29.56,5.77" />
      <path class="cls-8"
        d="M75.01,481.12s9.14,32.34,35.29,33.41c26.15,1.07,26.84-9.37,26.84-9.37,0,0-22.2-27.72-62.13-24.04" />
    </g>
    <g>
      <path class="cls-8"
        d="M199.85,482.77c-8.95-29.13-56.24,.82-46.83,25.31,0,0,5.38,10.4,9.8,25.8,12.37-9.66,26.23-17.99,40.07-26.02-.22-10.25-1.19-19.09-3.04-25.1Z" />
      <path class="cls-6"
        d="M162.82,533.89c5.2,18.11,9.07,43.15,1.33,66.38,0,0-.48,8.12,16.24,7.64,13.27-.38,23.37-60.62,22.5-100.03-13.84,8.03-27.7,16.36-40.07,26.02Z" />
      <path class="cls-6"
        d="M164.15,600.26s-5.49,2.87-6.21,10.75c-.72,7.88,17.91,59.46,29.37,53.73,11.46-5.73-5.37-24,4.3-22.57,9.67,1.43,7.52,22.21,20.78,21.49,13.25-.72-11.1-23.28-2.51-25.43,8.6-2.15,7.22,13.61,15.97,11.82,8.75-1.79-25.41-41.98-40.93-44.63,0,0-18.5,3.08-20.77-5.16Z" />
    </g>
    <path class="cls-8"
      d="M187.67,640.97s-17.73-26.69-13.61-30.45c4.12-3.76,19.34,30.45,19.34,30.45,0,0-6.54-3.37-5.73,0Z" />
    <path class="cls-8" d="M187.14,611.41l19.34,26.33s2.33-2.87,7.16-1.61c0,0-23.82-31.88-26.51-24.72Z" />
    <path class="cls-7"
      d="M198.35,540.3c-.62,14.54-3.21,43.89-13.89,61.54-.61,1.01-1.7,1.63-2.88,1.63h0c-2.15,0-3.74-1.98-3.27-4.08,2.14-9.64,7.02-34.84,5.66-58.96-.21-3.72,2.42-7,6.11-7.56h0c4.48-.68,8.48,2.89,8.28,7.42Z" />
    <path class="cls-8"
      d="M133.58,530.16s4.06,18.94-1.43,37.65c0,0,5.73-3.66,9.79,0,0,0,4.54-31.2-4.89-40.51,0,0-4.17-1.58-3.46,2.87Z" />
    <path class="cls-8" d="M114.24,564.31s3.58-3.82,6.69,0c0,0,6.93-27.22,0-33.91-6.93-6.69-2.14,18.15-6.69,33.91Z" />
    <path class="cls-5"
      d="M79.14,307.12s-32.96-12.9-64.48,46.81c-31.52,59.7-2.39,128.95-2.39,128.95,0,0,2.57,3.16,4.54,1.19,1.97-1.97-3.22-10.75-.54-11.1,2.69-.36,3.94,17.01,11.64,14.51,7.7-2.51,2.15-23.1,5.19-21.13,3.05,1.97,1.43,10.21,5.55,10.21s-5.85-90.15,25.67-114.03c0,0,29.13-37.25,14.81-55.4" />
    <path class="cls-7" d="M69.11,307.12s-36.3,11.7-50.87,50.63c0,0-3.34,11.22,3.82,11.22s24.84-55.16,47.04-61.85Z" />
    <g>
      <path class="cls-5"
        d="M313.88,277.19c7.57-30.77,5.72-62.82,1.14-62.67-5.37,.18-1.79,9.13-8.42,11.57-6.63,2.43-5.55-28.4-12.9-27.51-7.34,.9-2.15,29.37-5.73,29.37s-6.09-13.97-11.11-12.18c-5.01,1.79,11.11,36.18-13.97,69.49-25.07,33.31-63.04,19.7-63.04,19.7,.8,12.07,5.82,26.66,11.86,38.04,40.06-9.07,77.04-33.06,102.17-65.82Z" />
      <path class="cls-4"
        d="M211.71,343.01c6.15,11.59,13.35,19.85,18.23,18.73,6.5-1.48,4.9-7.58,4.9-7.58,0,0,61.37-26.98,74.27-61.37,1.89-5.05,3.47-10.3,4.77-15.6-25.13,32.76-62.1,56.75-102.17,65.82Z" />
      <path class="cls-7" d="M212.92,307.49s44.02,6.21,61.87-46.28c0,0-7.85,75.79-61.87,46.28Z" />
    </g>
    <path class="cls-11"
      d="M204.16,171.45c-15.6-17.43-38.26-28.4-63.49-28.4-28.14,0-53.09,13.65-68.6,34.68,17.73,10.15,37.56,16.18,57.93,16.18,24.74,0,54.1-6.54,74.16-22.47Z" />
    <path class="cls-5"
      d="M130,193.92c-20.36,0-40.2-6.03-57.93-16.18-10.42,14.13-16.58,31.59-16.58,50.5,0,47.04,38.14,85.18,85.18,85.18s85.18-38.14,85.18-85.18c0-21.81-8.2-41.71-21.69-56.78-20.06,15.93-49.42,22.47-74.16,22.47Z" />
    <path class="cls-5"
      d="M205.43,294.94c-3.58-5.73-10.92-3.12-10.92-3.12-14.81,16.33-53.84,21.6-53.84,21.6,0,0-39.02-5.26-53.84-21.6,0,0-7.34-2.61-10.92,3.12-3.58,5.73,3.22,12.18,3.22,12.18,0,0,27.79,22.57,61.54,22.57s61.54-22.57,61.54-22.57c0,0,6.81-6.45,3.22-12.18Z" />
    <path class="cls-5"
      d="M237.71,393.5c-.42-3.45-.97-6.85-1.65-10.19-10.38-50.83-33.85-76.2-33.85-76.2H79.14s-25.07,18.63-35.82,80.71c-6.83,39.48,2.73,76.16,30.73,97.68,16.03,12.32,38.11,19.67,66.63,19.73,79.77,.14,103.19-60.87,97.03-111.73Z" />
    <path class="cls-7"
      d="M204.72,426c0,39.6-29.22,71.69-65.27,71.69s-65.27-32.1-65.27-71.69,29.22-71.7,65.27-71.7,65.27,32.1,65.27,71.7Z" />
    <path class="cls-3"
      d="M155.08,482.64c-25.79,7.88-51.58,10.75-78.09,3.58-.98-.24-1.96-.48-2.94-.71,16.03,12.32,38.11,19.67,66.63,19.73,79.77,.14,103.19-60.87,97.03-111.73-13.59,40.02-40.76,75.37-82.63,89.14Z" />
    <path class="cls-4" d="M41.71,422.89s-9.38-70.88,37.43-115.77c0,0-32.83,29.52-37.43,115.77Z" />
    <path class="cls-4" d="M234.18,374.98s-8.72-51.15-31.97-67.86c0,0,27.85,43.05,31.97,67.86Z" />
    <path class="cls-4"
      d="M81.64,308.91s14.53,9.31,59.03,7.52c44.49-1.79,56.32-9.31,56.32-9.31,0,0-54.45,25.79-115.34,1.79Z" />
    <path class="cls-4"
      d="M84.87,291.22s11.31,10.16,55.81,11.6c44.49,1.43,56.32-10.68,56.32-10.68,0,0-8.75,12.63-56.32,13.81,0,0-40.09,1.99-55.81-14.72Z" />
    <path class="cls-5"
      d="M116.94,166.82s-16.24-40.6-2.87-66.87c13.37-26.27,10.51,22.93,17.19,19.1,6.69-3.82-.12-13.31,9.19-12.96,9.31,.36,4.12,15.4,8.24,15.76s1.25-9.49,8.96-7.52c7.7,1.97,4.66,31.52,4.66,31.52,0,0-29.49-10.93-45.37,20.96Z" />
    <path class="cls-5"
      d="M223.52,211.28s17.7-42.67,40.4-34.95c22.7,7.72-29.51,57.2-29.51,57.2,0,0,9.35-9.53,12.16-1.82,2.82,7.72-10.35,15.89-10.35,15.89,0,0,6.36-2.72,6.81,4.09,.45,6.81-24.97,9.53-24.97,9.53l5.45-49.93Z" />
    <path class="cls-5"
      d="M58.48,211.28s-17.7-42.67-40.4-34.95c-22.7,7.72,29.51,57.2,29.51,57.2,0,0-9.35-9.53-12.17-1.82-2.82,7.72,10.35,15.89,10.35,15.89,0,0-6.35-2.72-6.81,4.09-.45,6.81,24.97,9.53,24.97,9.53l-5.45-49.93Z" />
    <path class="cls-4" d="M132.33,142.16l-4.66-23.28s3.4,4.3,6.45,0c0,0,5.19,24-1.79,23.28Z" />
    <path class="cls-4" d="M145.76,122.46s3.22,3.04,5.73,0c0,0-.36,17.55-2.87,18.09-2.51,.54-2.87-18.09-2.87-18.09Z" />
    <path class="cls-11"
      d="M118.54,95.59s-8.78,8.42-8.95,29.91c-.18,21.49,7.34,36.54,7.34,36.54,0,0-7.7-33.67,4.48-63.4,0,0,1.07-5.28-2.87-3.05Z" />
    <path class="cls-11"
      d="M19.43,179.12s-4.74,0-4.78,6.69c-.04,6.68,33.91,47.28,33.91,47.28,0,0-12.42-58.03-29.13-53.97Z" />
    <path class="cls-11" d="M48.57,236.91s-7.52-10.63-10.98-5.02c-3.46,5.61,12.97,7.46,10.98,5.02Z" />
    <path class="cls-11" d="M49.76,251s-8.3-4.93-9.19-1.07c-.9,3.85,11.46,4.78,9.19,1.07Z" />
    <path class="cls-11"
      d="M263.11,179.12s4.74,0,4.78,6.69c.04,6.68-33.91,47.28-33.91,47.28,0,0,12.42-58.03,29.13-53.97Z" />
    <path class="cls-11" d="M233.98,236.91s7.52-10.63,10.99-5.02c3.46,5.61-12.97,7.46-10.99,5.02Z" />
    <path class="cls-11" d="M232.78,251s8.3-4.93,9.19-1.07c.9,3.85-11.46,4.78-9.19,1.07Z" />
    <path class="cls-4" d="M57.6,209.32s-7.25,25.59,4.51,51.9c0,0-6.94-29.82-4.51-51.9Z" />
    <path class="cls-4" d="M223.64,209.32s7.25,25.59-4.51,51.9c0,0,6.94-29.82,4.51-51.9Z" />
    <path class="cls-2"
      d="M112.4,225.47c-.12,5.58,1.45,10.17,3.5,10.25,2.05,.08,3.82-4.39,3.94-9.97,.12-5.58-1.45-10.17-3.5-10.25-2.05-.08-3.81,4.39-3.93,9.97" />
    <path class="cls-2"
      d="M155.51,225.47c-.12,5.58,1.45,10.17,3.5,10.25,2.05,.08,3.82-4.39,3.94-9.97,.12-5.58-1.45-10.17-3.5-10.25-2.05-.08-3.81,4.39-3.94,9.97" />
    <g>
      <g>
        <path class="cls-2"
          d="M147.03,255.16c.38-1.05,.6-2.17,.6-3.35,0-5.46-4.43-9.89-9.89-9.89s-9.89,4.43-9.89,9.89c0,2.14,.69,4.12,1.84,5.74,4.21-4.8,11.31-5.27,17.33-2.39Z" />
        <path class="cls-9"
          d="M129.7,257.55c1.79,2.51,4.72,4.15,8.04,4.15,4.28,0,7.92-2.73,9.29-6.54-6.03-2.89-13.12-2.42-17.33,2.39Z" />
      </g>
      <path class="cls-4" d="M125.7,257.53s1.61,6.78,10.84,6.69c0,0-10.39,2.12-10.84-6.69Z" />
      <path class="cls-4" d="M144.87,262.7s7.7-4.26,5.91-11.8c0,0,5.91,8.94-5.91,11.8Z" />
    </g>
    <g>
      <path class="cls-8" d="M208.33,210.96s8.48,22.89-2.87,46.31c0,0,18.51-21,2.87-46.31Z" />
      <path class="cls-8" d="M215.78,214.98s8.48,22.9-2.86,46.31c0,0,18.51-21,2.86-46.31Z" />
    </g>
    <g>
      <path class="cls-8" d="M76.1,210.96s-8.48,22.89,2.87,46.31c0,0-18.51-21-2.87-46.31Z" />
      <path class="cls-8" d="M68.64,214.98s-8.48,22.9,2.87,46.31c0,0-18.51-21-2.87-46.31Z" />
    </g>
  </g>
  <g>
    <circle class="cls-10" cx="261.78" cy="136.79" r="12.02" />
    <circle class="cls-10" cx="261.52" cy="135.53" r="10.06" />
    <path class="cls-10"
      d="M269.45,136.81c0,4.58-3.71,8.29-8.29,8.29s-8.29-3.71-8.29-8.29,3.71-8.3,8.29-8.3,8.29,3.71,8.29,8.3Z" />
    <path class="cls-1"
      d="M258.71,132.58c0,1.24-1.01,2.25-2.25,2.25s-2.25-1.01-2.25-2.25,1-2.24,2.25-2.24,2.25,1,2.25,2.24Z" />
    <circle class="cls-1" cx="255.69" cy="142.63" r="3.72" />
  </g>
  <g>
    <circle class="cls-10" cx="50.77" cy="113.19" r="16.17" />
    <path class="cls-10"
      d="M63.95,111.49c0,7.47-6.06,13.53-13.53,13.53s-13.53-6.06-13.53-13.53,6.06-13.53,13.53-13.53,13.53,6.06,13.53,13.53Z" />
    <path class="cls-10"
      d="M61.08,113.22c0,6.16-4.99,11.15-11.15,11.15s-11.15-4.99-11.15-11.15,4.99-11.15,11.15-11.15,11.15,4.99,11.15,11.15Z" />
    <path class="cls-1"
      d="M46.64,107.52c0,1.67-1.35,3.02-3.02,3.02s-3.02-1.35-3.02-3.02,1.35-3.02,3.02-3.02,3.02,1.35,3.02,3.02Z" />
    <path class="cls-1" d="M47.59,121.04c0,2.76-2.24,5-5,5s-5-2.24-5-5,2.24-5,5-5,5,2.24,5,5Z" />
  </g>
  <g>
    <path class="cls-10"
      d="M226.2,240.94c0,8.93-7.24,16.17-16.17,16.17s-16.17-7.24-16.17-16.17,7.24-16.17,16.17-16.17,16.17,7.24,16.17,16.17Z" />
    <path class="cls-10"
      d="M223.22,239.24c0,7.47-6.06,13.53-13.53,13.53s-13.53-6.06-13.53-13.53,6.06-13.53,13.53-13.53,13.53,6.06,13.53,13.53Z" />
    <path class="cls-10"
      d="M220.35,240.96c0,6.16-4.99,11.15-11.15,11.15s-11.15-4.99-11.15-11.15,4.99-11.15,11.15-11.15,11.15,4.99,11.15,11.15Z" />
    <path class="cls-1"
      d="M205.91,235.27c0,1.67-1.35,3.02-3.02,3.02s-3.02-1.35-3.02-3.02,1.35-3.02,3.02-3.02,3.02,1.35,3.02,3.02Z" />
    <path class="cls-1" d="M206.86,248.79c0,2.76-2.24,5-5,5s-5-2.24-5-5,2.24-5,5-5,5,2.24,5,5Z" />
  </g>
  <g>
    <path class="cls-10"
      d="M88.98,253.79c0,8.93-7.24,16.17-16.17,16.17s-16.17-7.24-16.17-16.17,7.24-16.17,16.17-16.17,16.17,7.24,16.17,16.17Z" />
    <path class="cls-10"
      d="M86,252.09c0,7.47-6.06,13.53-13.53,13.53s-13.53-6.06-13.53-13.53,6.06-13.53,13.53-13.53,13.53,6.06,13.53,13.53Z" />
    <path class="cls-10"
      d="M83.13,253.81c0,6.16-4.99,11.15-11.15,11.15s-11.15-4.99-11.15-11.15,4.99-11.15,11.15-11.15,11.15,4.99,11.15,11.15Z" />
    <path class="cls-1"
      d="M68.69,248.12c0,1.67-1.35,3.02-3.02,3.02s-3.02-1.35-3.02-3.02,1.35-3.02,3.02-3.02,3.02,1.35,3.02,3.02Z" />
    <path class="cls-1" d="M69.64,261.64c0,2.76-2.24,5-5,5s-5-2.24-5-5,2.24-5,5-5,5,2.24,5,5Z" />
  </g>
  <g>
    <path class="cls-10"
      d="M90.29,572.57c0,2.63-2.13,4.76-4.76,4.76s-4.76-2.13-4.76-4.76,2.13-4.76,4.76-4.76,4.76,2.13,4.76,4.76Z" />
    <path class="cls-10"
      d="M89.41,572.07c0,2.2-1.78,3.99-3.99,3.99s-3.99-1.78-3.99-3.99,1.78-3.99,3.99-3.99,3.99,1.78,3.99,3.99Z" />
    <path class="cls-10"
      d="M88.57,572.58c0,1.81-1.47,3.29-3.29,3.29s-3.29-1.47-3.29-3.29,1.47-3.29,3.29-3.29,3.29,1.47,3.29,3.29Z" />
    <path class="cls-1" d="M84.31,570.9c0,.49-.4,.89-.89,.89s-.89-.4-.89-.89,.4-.89,.89-.89,.89,.4,.89,.89Z" />
    <path class="cls-1"
      d="M84.59,574.89c0,.82-.66,1.48-1.47,1.48s-1.48-.66-1.48-1.48,.66-1.47,1.48-1.47,1.47,.66,1.47,1.47Z" />
  </g>
  <g>
    <path class="cls-10"
      d="M86.41,545.13c0,2.63-2.13,4.76-4.76,4.76s-4.76-2.13-4.76-4.76,2.13-4.76,4.76-4.76,4.76,2.13,4.76,4.76Z" />
    <path class="cls-10"
      d="M85.53,544.62c0,2.2-1.78,3.99-3.99,3.99s-3.99-1.79-3.99-3.99,1.79-3.99,3.99-3.99,3.99,1.78,3.99,3.99Z" />
    <path class="cls-10"
      d="M84.68,545.13c0,1.82-1.47,3.29-3.29,3.29s-3.29-1.47-3.29-3.29,1.47-3.29,3.29-3.29,3.29,1.47,3.29,3.29Z" />
    <path class="cls-1" d="M80.43,543.46c0,.49-.4,.89-.89,.89s-.89-.4-.89-.89,.4-.89,.89-.89,.89,.4,.89,.89Z" />
    <path class="cls-1"
      d="M80.71,547.44c0,.81-.66,1.47-1.47,1.47s-1.47-.66-1.47-1.47,.66-1.47,1.47-1.47,1.47,.66,1.47,1.47Z" />
  </g>
  <g>
    <path class="cls-10"
      d="M116.55,583.32c0,1.95-1.58,3.54-3.54,3.54s-3.54-1.59-3.54-3.54,1.58-3.54,3.54-3.54,3.54,1.59,3.54,3.54Z" />
    <path class="cls-10"
      d="M115.9,582.94c0,1.64-1.33,2.96-2.96,2.96s-2.96-1.33-2.96-2.96,1.33-2.96,2.96-2.96,2.96,1.33,2.96,2.96Z" />
    <path class="cls-10"
      d="M115.27,583.32c0,1.35-1.09,2.44-2.44,2.44s-2.44-1.09-2.44-2.44,1.09-2.44,2.44-2.44,2.44,1.09,2.44,2.44Z" />
    <path class="cls-1" d="M112.11,582.07c0,.37-.29,.66-.66,.66s-.66-.3-.66-.66,.3-.66,.66-.66,.66,.29,.66,.66Z" />
    <path class="cls-1"
      d="M112.32,585.03c0,.61-.49,1.09-1.09,1.09s-1.09-.49-1.09-1.09,.49-1.09,1.09-1.09,1.09,.49,1.09,1.09Z" />
  </g>
  <g>
    <path class="cls-10"
      d="M227.26,576.39c0,2.78-2.26,5.04-5.04,5.04s-5.04-2.25-5.04-5.04,2.26-5.04,5.04-5.04,5.04,2.26,5.04,5.04Z" />
    <path class="cls-10"
      d="M226.33,575.86c0,2.33-1.89,4.22-4.22,4.22s-4.22-1.89-4.22-4.22,1.89-4.22,4.22-4.22,4.22,1.89,4.22,4.22Z" />
    <path class="cls-10"
      d="M225.44,576.4c0,1.92-1.56,3.48-3.48,3.48s-3.48-1.56-3.48-3.48,1.56-3.48,3.48-3.48,3.48,1.56,3.48,3.48Z" />
    <path class="cls-1" d="M220.93,574.62c0,.52-.42,.94-.94,.94s-.94-.42-.94-.94,.42-.94,.94-.94,.94,.42,.94,.94Z" />
    <path class="cls-1"
      d="M221.23,578.84c0,.86-.7,1.56-1.56,1.56s-1.56-.7-1.56-1.56,.7-1.56,1.56-1.56,1.56,.7,1.56,1.56Z" />
  </g>
  <g>
    <path class="cls-10"
      d="M102.44,546.8c0,1.95-1.58,3.54-3.54,3.54s-3.54-1.59-3.54-3.54,1.59-3.54,3.54-3.54,3.54,1.59,3.54,3.54Z" />
    <path class="cls-10"
      d="M101.78,546.42c0,1.64-1.33,2.96-2.96,2.96s-2.96-1.33-2.96-2.96,1.33-2.96,2.96-2.96,2.96,1.33,2.96,2.96Z" />
    <path class="cls-10"
      d="M101.16,546.8c0,1.35-1.09,2.44-2.44,2.44s-2.44-1.09-2.44-2.44,1.09-2.44,2.44-2.44,2.44,1.09,2.44,2.44Z" />
    <path class="cls-1" d="M98,545.55c0,.37-.3,.66-.66,.66s-.66-.3-.66-.66,.3-.66,.66-.66,.66,.29,.66,.66Z" />
    <path class="cls-1"
      d="M98.2,548.51c0,.61-.49,1.09-1.09,1.09s-1.09-.49-1.09-1.09,.49-1.09,1.09-1.09,1.09,.49,1.09,1.09Z" />
  </g>
  <g>
    <path class="cls-10"
      d="M217.18,613.77c0,1.96-1.58,3.54-3.54,3.54s-3.54-1.58-3.54-3.54,1.58-3.54,3.54-3.54,3.54,1.59,3.54,3.54Z" />
    <path class="cls-10"
      d="M216.53,613.4c0,1.64-1.33,2.96-2.96,2.96s-2.96-1.33-2.96-2.96,1.33-2.96,2.96-2.96,2.96,1.33,2.96,2.96Z" />
    <path class="cls-10"
      d="M215.9,613.77c0,1.35-1.09,2.44-2.44,2.44s-2.44-1.09-2.44-2.44,1.09-2.44,2.44-2.44,2.44,1.09,2.44,2.44Z" />
    <path class="cls-1" d="M212.74,612.53c0,.37-.3,.66-.66,.66s-.66-.3-.66-.66,.3-.66,.66-.66,.66,.3,.66,.66Z" />
    <path class="cls-1"
      d="M212.95,615.49c0,.61-.49,1.09-1.09,1.09s-1.09-.49-1.09-1.09,.49-1.09,1.09-1.09,1.09,.49,1.09,1.09Z" />
  </g>
  <g>
    <path class="cls-10"
      d="M156.56,611.33c0,1.95-1.59,3.54-3.54,3.54s-3.54-1.59-3.54-3.54,1.58-3.54,3.54-3.54,3.54,1.59,3.54,3.54Z" />
    <path class="cls-10"
      d="M155.91,610.96c0,1.64-1.33,2.96-2.96,2.96s-2.96-1.33-2.96-2.96,1.33-2.96,2.96-2.96,2.96,1.33,2.96,2.96Z" />
    <path class="cls-10"
      d="M155.28,611.34c0,1.35-1.09,2.44-2.44,2.44s-2.44-1.09-2.44-2.44,1.09-2.44,2.44-2.44,2.44,1.09,2.44,2.44Z" />
    <path class="cls-1" d="M152.12,610.09c0,.37-.3,.66-.66,.66s-.66-.3-.66-.66,.29-.66,.66-.66,.66,.29,.66,.66Z" />
    <circle class="cls-1" cx="151.23" cy="613.05" r="1.09" />
  </g>
  <g>
    <path class="cls-10"
      d="M155.33,636.26c0,1.96-1.58,3.54-3.54,3.54s-3.54-1.58-3.54-3.54,1.59-3.54,3.54-3.54,3.54,1.59,3.54,3.54Z" />
    <path class="cls-10"
      d="M154.68,635.89c0,1.64-1.33,2.96-2.96,2.96s-2.96-1.33-2.96-2.96,1.33-2.96,2.96-2.96,2.96,1.33,2.96,2.96Z" />
    <path class="cls-10"
      d="M154.05,636.27c0,1.35-1.09,2.44-2.44,2.44s-2.44-1.09-2.44-2.44,1.09-2.44,2.44-2.44,2.44,1.09,2.44,2.44Z" />
    <path class="cls-1" d="M150.89,635.02c0,.37-.3,.66-.66,.66s-.66-.3-.66-.66,.3-.66,.66-.66,.66,.3,.66,.66Z" />
    <path class="cls-1"
      d="M151.09,637.98c0,.61-.49,1.09-1.09,1.09s-1.09-.49-1.09-1.09,.49-1.09,1.09-1.09,1.09,.49,1.09,1.09Z" />
  </g>
  <g>
    <path class="cls-10"
      d="M131.69,628.55c0,4.24-3.44,7.69-7.69,7.69s-7.68-3.44-7.68-7.69,3.44-7.68,7.68-7.68,7.69,3.44,7.69,7.68Z" />
    <circle class="cls-10" cx="123.84" cy="627.74" r="6.43" />
    <path class="cls-10"
      d="M128.91,628.56c0,2.93-2.37,5.3-5.3,5.3s-5.3-2.37-5.3-5.3,2.37-5.3,5.3-5.3,5.3,2.37,5.3,5.3Z" />
    <path class="cls-1"
      d="M122.04,625.86c0,.79-.64,1.44-1.43,1.44s-1.44-.64-1.44-1.44,.64-1.43,1.44-1.43,1.43,.64,1.43,1.43Z" />
    <path class="cls-1"
      d="M122.49,632.28c0,1.31-1.06,2.38-2.38,2.38s-2.38-1.06-2.38-2.38,1.06-2.38,2.38-2.38,2.38,1.06,2.38,2.38Z" />
  </g>
  <g>
    <path class="cls-10"
      d="M204.72,602.92c0,1.47-1.19,2.66-2.66,2.66s-2.66-1.19-2.66-2.66,1.19-2.66,2.66-2.66,2.66,1.19,2.66,2.66Z" />
    <path class="cls-10"
      d="M204.23,602.64c0,1.23-1,2.22-2.22,2.22s-2.22-1-2.22-2.22,1-2.22,2.22-2.22,2.22,1,2.22,2.22Z" />
    <path class="cls-10"
      d="M203.76,602.93c0,1.01-.82,1.83-1.83,1.83s-1.83-.82-1.83-1.83,.82-1.83,1.83-1.83,1.83,.82,1.83,1.83Z" />
    <path class="cls-1" d="M201.39,601.99c0,.27-.22,.49-.5,.49s-.5-.22-.5-.49,.22-.5,.5-.5,.5,.22,.5,.5Z" />
    <circle class="cls-1" cx="200.72" cy="604.21" r=".82" />
  </g>
  <g>
    <path class="cls-10"
      d="M41.55,529.28c0,1.96-1.58,3.54-3.54,3.54s-3.54-1.58-3.54-3.54,1.58-3.54,3.54-3.54,3.54,1.58,3.54,3.54Z" />
    <path class="cls-10"
      d="M40.9,528.91c0,1.64-1.33,2.96-2.96,2.96s-2.96-1.33-2.96-2.96,1.33-2.96,2.96-2.96,2.96,1.33,2.96,2.96Z" />
    <path class="cls-10"
      d="M40.27,529.29c0,1.35-1.09,2.44-2.44,2.44s-2.44-1.09-2.44-2.44,1.09-2.44,2.44-2.44,2.44,1.09,2.44,2.44Z" />
    <path class="cls-1" d="M37.11,528.04c0,.37-.3,.66-.66,.66s-.66-.3-.66-.66,.3-.66,.66-.66,.66,.3,.66,.66Z" />
    <circle class="cls-1" cx="36.22" cy="531" r="1.09" />
  </g>
  <g>
    <path class="cls-10"
      d="M170.26,180.4c0,3.59-2.91,6.49-6.49,6.49s-6.49-2.91-6.49-6.49,2.91-6.49,6.49-6.49,6.49,2.91,6.49,6.49Z" />
    <path class="cls-10"
      d="M169.06,179.72c0,3-2.43,5.43-5.43,5.43s-5.43-2.43-5.43-5.43,2.43-5.43,5.43-5.43,5.43,2.43,5.43,5.43Z" />
    <path class="cls-10"
      d="M167.91,180.41c0,2.47-2.01,4.48-4.48,4.48s-4.48-2.01-4.48-4.48,2.01-4.48,4.48-4.48,4.48,2.01,4.48,4.48Z" />
    <path class="cls-1"
      d="M162.11,178.12c0,.67-.54,1.21-1.21,1.21s-1.21-.54-1.21-1.21,.54-1.21,1.21-1.21,1.21,.54,1.21,1.21Z" />
    <path class="cls-1"
      d="M162.49,183.55c0,1.11-.9,2.01-2.01,2.01s-2.01-.9-2.01-2.01,.9-2.01,2.01-2.01,2.01,.9,2.01,2.01Z" />
  </g>
  <g>
    <circle class="cls-10" cx="188.26" cy="82.27" r="15.73" transform="translate(65.07 246.69) rotate(-76.76)" />
    <path class="cls-10"
      d="M201.08,80.62c0,7.27-5.89,13.16-13.16,13.16s-13.16-5.89-13.16-13.16,5.89-13.16,13.16-13.16,13.16,5.89,13.16,13.16Z" />
    <path class="cls-10"
      d="M198.29,82.29c0,5.99-4.86,10.85-10.85,10.85s-10.85-4.86-10.85-10.85,4.86-10.85,10.85-10.85,10.85,4.86,10.85,10.85Z" />
    <path class="cls-1"
      d="M184.25,76.75c0,1.62-1.31,2.94-2.94,2.94s-2.94-1.31-2.94-2.94,1.31-2.94,2.94-2.94,2.94,1.31,2.94,2.94Z" />
    <path class="cls-1"
      d="M185.17,89.91c0,2.69-2.18,4.87-4.87,4.87s-4.86-2.18-4.86-4.87,2.18-4.86,4.86-4.86,4.87,2.18,4.87,4.86Z" />
  </g>
  <g>
    <circle class="cls-10" cx="89.72" cy="22.78" r="22.78" transform="translate(52.81 107.67) rotate(-80.75)" />
    <path class="cls-10"
      d="M108.29,20.39c0,10.53-8.53,19.06-19.07,19.06s-19.06-8.54-19.06-19.06S78.7,1.32,89.22,1.32s19.07,8.54,19.07,19.07Z" />
    <path class="cls-10"
      d="M104.25,22.81c0,8.68-7.04,15.72-15.72,15.72s-15.72-7.04-15.72-15.72,7.04-15.72,15.72-15.72,15.72,7.04,15.72,15.72Z" />
    <path class="cls-1"
      d="M83.9,14.79c0,2.35-1.9,4.25-4.25,4.25s-4.25-1.9-4.25-4.25,1.9-4.25,4.25-4.25,4.25,1.91,4.25,4.25Z" />
    <path class="cls-1"
      d="M85.24,33.84c0,3.89-3.16,7.05-7.05,7.05s-7.05-3.15-7.05-7.05,3.15-7.05,7.05-7.05,7.05,3.15,7.05,7.05Z" />
  </g>
</svg>