<?xml version="1.0" encoding="UTF-8"?>
<svg id="Capa_1" data-name="Capa 1" xmlns="http://www.w3.org/2000/svg" viewBox="0 0 1920 1080">
  <defs>
    <style>
      .cls-1 {
        fill: #ededed;
      }
    </style>
  </defs>
  <rect class="cls-1" width="1920" height="1080"/>
  <g>
    <path d="M677.51,328.82c3.68-10.91,5.83-22.67,11.33-32.57,17.05-30.71,44.48-45.72,79.16-45.83,121.25-.38,242.51-.46,363.76,0,52.44,.2,89.8,38.88,89.88,91.43,.11,73.45,.03,146.91,.03,220.36,0,2.56,0,5.13,0,6.91,12.66,3.97,25.09,6.79,36.66,11.67,53.89,22.74,86.16,77.01,80.27,133.83-6.22,59.96-49.16,108.05-107.03,119.12-38.37,7.34-73.52-.94-105.01-24.08-4.06-2.98-8-4.21-12.99-4.21-114.58,.11-229.16,.13-343.73,.07-42.23-.02-74.84-22.87-87.73-61.33-1.89-5.64-3.08-11.52-4.59-17.28,0-132.7,0-265.4,0-398.1Zm33.54,260.88c2.67-2.55,4.37-4.08,5.98-5.71,30.28-30.64,60.53-61.29,90.82-91.92,10.6-10.72,19.14-10.72,29.8,0,29.16,29.32,58.32,58.64,87.39,88.05,1.6,1.62,2.36,4.06,3.78,6.6,3.7-3.95,5.42-5.88,7.23-7.71,43.46-43.65,86.93-87.29,130.39-130.93,12.8-12.86,20.08-12.81,33.09,.2,27.56,27.57,55.12,55.14,82.7,82.69,1.58,1.58,3.31,3.02,5.95,5.41,0-3.24,0-5.1,0-6.97,0-62.03,.07-124.06-.03-186.09-.06-35.03-23.76-58.68-58.92-58.7-119.74-.08-239.47-.08-359.21,0-35.71,.02-58.97,23.51-58.98,59.21-.02,79.48,0,158.96,0,238.43,0,2.05,0,4.09,0,7.45Zm378.24,183.63c-21.07-40.29-25.95-80.77-8.21-122.17,17.74-41.39,49.92-66.64,93.66-78.6-31.62-30.96-62.42-61.12-93.52-91.58-.77,.82-2.32,2.61-3.99,4.28-44.06,44.25-88.12,88.5-132.2,132.73-10.27,10.31-19.73,10.3-30.04,0-29.09-29.08-58.14-58.18-87.23-87.26-1.6-1.6-3.32-3.09-4.77-4.43-.83,.36-1.08,.4-1.22,.54-36.15,36.31-72.32,72.61-108.34,109.05-1.54,1.56-2.28,4.54-2.29,6.86-.16,23.9-.57,47.82,.15,71.7,.26,8.6,2.03,17.7,5.43,25.57,10.46,24.19,31.8,32.89,55.93,33.04,103.34,.62,206.69,.26,310.03,.26h6.6Zm115.11-169.98c-55.61,.33-99.03,44.46-99.42,100.06-.39,56.81,49.25,99.26,100.01,98.78,55.71-.53,99.73-44.59,99.35-99.98-.38-55.03-45.02-99.19-99.94-98.86Z"/>
    <path d="M925.4,485.65c-26.04-1.37-44.98-22.04-43.7-47.67,1.21-24.18,22.4-43.96,46.05-42.99,26.05,1.07,45.7,22.29,44.38,47.93-1.27,24.52-22.58,44.01-46.73,42.74Z"/>
    <path d="M1221.67,689.66c0,5.72,0,11.44,0,17.16,0,16.58,.08,33.16-.04,49.75-.07,10.01-7.35,17.71-16.58,17.94-9.48,.23-17.16-7.52-17.23-17.89-.14-20.24-.05-40.49-.05-60.73,0-2.07,0-4.13,0-6.2-.59-.37-1.18-.73-1.77-1.1-2.5,2.83-4.81,5.86-7.53,8.46-7.17,6.87-18.28,7.35-24.53,1.28-6.8-6.6-6.51-17.97,.89-25.47,12.1-12.26,24.3-24.43,36.54-36.55,8.25-8.17,17.31-8.78,25.68-.82,13.1,12.46,25.82,25.34,38.39,38.34,6.71,6.94,6.58,17.94,.47,24.03-6.53,6.51-17.7,6.19-24.99-.81-2.72-2.61-5.22-5.46-7.82-8.2-.47,.27-.94,.53-1.41,.8Z"/>
  </g>
</svg>