<?xml version="1.0" encoding="utf-8"?>
<!-- Generator: Adobe Illustrator 26.4.1, SVG Export Plug-In . SVG Version: 6.00 Build 0)  -->
<svg version="1.1" id="Capa_1" xmlns="http://www.w3.org/2000/svg" xmlns:xlink="http://www.w3.org/1999/xlink" x="0px" y="0px"
	 viewBox="0 0 595.28 841.89" style="enable-background:new 0 0 595.28 841.89;" xml:space="preserve">
<style type="text/css">
	.st0{fill:#9AC026;}
	.st1{fill:#6DAFE0;}
	.st2{fill:#F08454;}
	.st3{fill:#0A0A0A;}
</style>
<path class="st0" d="M547.77,246.84c0,0,13.39,39.41,16.67,80.84c3.28,41.43,5.05,76.29-8.34,105.85s-36.63,55.83-96,61.39
	c-59.37,5.56-72-48-72-48s21.73-83.87,50.27-92.72C466.93,345.37,544.49,289.29,547.77,246.84z"/>
<path class="st1" d="M250.34,89.68c0,0,9.09,75.41,50.78,114.44s124.67,112.93,126.19,160.67c0.02,0.76,0.04,1.52,0.04,2.28
	c0.01,46.67-45.13,83.37-45.13,83.37s-58.74,40.93-105.73,15.92c-46.99-25.01-70.11-63.66-70.11-63.66s-19.33-31.07-17.81-112.93
	S250.34,89.68,250.34,89.68z"/>
<path class="st2" d="M272.83,503.01c0,0-117.09,217.14-129.6,219.03c0,0,145.14,80.46,228-81.22c0,0,39.41-96.76-24.25-137.81
	C346.98,503.01,316.91,520.82,272.83,503.01z"/>
<path class="st2" d="M320.81,534.25"/>
<path class="st3" d="M323.42,474.21c0,0,46.23,62.91,48.88,78.44c2.65,15.54,10.8,77.49-35.81,128.08s-64.93,53.68-157.39,52.67
	c0,0-129.35-19.2-136.93-146.02c0,0-2.02-27.79,31.83-80.34s116.21-175.33,116.21-175.33l-1.52-19.2c0,0-147.28,220.9-153.6,234.44
	s-12.63,57.64,4.11,103.26c17.79,48.48,76.92,89.04,91.52,92.08c17.84,3.72,99.66,16.86,144,5.12
	c44.34-11.75,92.84-42.44,115.58-91.71c22.74-49.26,24.63-106.86,18.95-154.23c0,0,48.88-40.93,70.11-65.56
	c21.22-24.63,35.81-48.13,43.2-64.23c7.39-16.11,11.18-29.94,11.75-37.89c-3.81,7.15-41.59,77.42-54,89.62
	c-19.44,19.11-45.31,51.06-79.01,66.88c-2.7,1.88-5.7,1.68-8.91,0.19c1.42,0.21-51.51-47.58-62.15-59.49
	c-10.17-11.39-42.51-33.09-68.53-95.75c0,0-14.91-33.85-20.21-55.83c-5.31-21.98-6.32-62.91-6.32-62.91
	c-0.72-4.72-8.61,36.92,3.72,76.55c8.1,26.03,28.36,81.09,42.76,97.01c14.4,15.92,87.69,110.8,89.43,113.94
	c7.45,13.39,5.31,19.71,4.29,25.77s-7.83-19.96-37.39-58.86L323.42,474.21z"/>
</svg>
