<?xml version="1.0" encoding="UTF-8"?>
<svg id="Layer_1" data-name="Layer 1" xmlns="http://www.w3.org/2000/svg" viewBox="0 0 520.64 704.51">
  <defs>
    <style>
      .cls-1 {
        fill: #2d8cb2;
      }

      .cls-2 {
        fill: #61c1e3;
      }

      .cls-3 {
        fill: #a1b32b;
      }

      .cls-4 {
        fill: #30aacd;
      }
    </style>
  </defs>
  <g>
    <path class="cls-3" d="M240.99,704.51c-15.88-68.7-53.83-141.99-95.93-207.44-1.18,15.55-1.24,31.04,.21,46.33,5.86,61.85,35.1,115.71,86.39,161,3.37,.09,6.47,.12,9.33,.1Z"/>
    <path class="cls-4" d="M111.51,546.54c-2.89-30.5-.85-61.37,4.91-92.06-32.33-46.16-64.47-86.17-88.57-114.69C5.47,397.92-6.01,457.07,3.18,511.46c21.67,128.39,107.29,172.14,173.85,186.46-38.13-44.09-60.16-94.69-65.52-151.38Z"/>
    <path class="cls-3" d="M279.65,704.51c15.87-68.7,53.83-141.99,95.93-207.44,1.17,15.55,1.24,31.04-.21,46.33-5.86,61.85-35.09,115.71-86.39,161-3.37,.09-6.48,.12-9.33,.1Z"/>
    <path class="cls-3" d="M260.32,226.05c-46.16,65.42-89.56,142.86-107.45,220.83,41.95,61.36,83.07,132.51,107.45,203.06,24.37-70.55,65.5-141.71,107.44-203.06-17.88-77.97-61.28-155.41-107.44-220.83Z"/>
    <path class="cls-2" d="M260.32,0S116.61,143.83,42.77,304.73c21.59,24.84,52.21,61.71,84.4,105.77,26.73-89.48,81.01-175.04,133.16-242.62,52.14,67.58,106.43,153.15,133.16,242.62,32.18-44.05,62.8-80.93,84.4-105.77C404.03,143.83,260.32,0,260.32,0Z"/>
    <path class="cls-4" d="M409.14,546.54c2.88-30.5,.84-61.37-4.92-92.06,32.34-46.16,64.48-86.17,88.57-114.69,22.38,58.14,33.86,117.29,24.67,171.67-21.67,128.39-107.29,172.14-173.85,186.46,38.13-44.09,60.16-94.69,65.52-151.38Z"/>
  </g>
  <path class="cls-1" d="M231.66,704.4s-216.34-135.14,28.66-478.35c0,0,241.93,298.25,28.66,478.35h-57.32Z"/>
</svg>