<?xml version="1.0" encoding="utf-8"?>
<!-- Generator: Adobe Illustrator 26.4.1, SVG Export Plug-In . SVG Version: 6.00 Build 0)  -->
<svg version="1.1" id="Capa_1" xmlns="http://www.w3.org/2000/svg" xmlns:xlink="http://www.w3.org/1999/xlink" x="0px" y="0px"
	 viewBox="0 0 5170 1601" style="enable-background:new 0 0 5170 1601;" xml:space="preserve">
<style type="text/css">
	.st0{clip-path:url(#SVGID_00000052091872813934407850000002373163238820241549_);}
	.st1{fill:url(#SVGID_00000000214065945866791310000013289116887978509952_);}
	.st2{clip-path:url(#SVGID_00000095315077532879201000000013769330971219464342_);}
	.st3{fill:url(#SVGID_00000015314718193895256660000017141912200286825108_);}
	.st4{clip-path:url(#SVGID_00000111869488962905362570000008081122860569574564_);}
	.st5{fill:url(#SVGID_00000030454467513601473050000016051979085010874296_);}
	.st6{clip-path:url(#SVGID_00000106850851522112031020000005583848061082887832_);}
	.st7{fill:url(#SVGID_00000015349377865724821750000010018434979863542706_);}
	.st8{clip-path:url(#SVGID_00000121957580248782968860000012358079847837481888_);}
	.st9{fill:url(#SVGID_00000072260211277124009440000005533773021212340358_);}
	.st10{clip-path:url(#SVGID_00000155107779490417031220000005945996809743485624_);}
	.st11{fill:url(#SVGID_00000129171628752480294500000015323529654349853862_);}
</style>
<g transform="translate(0 -331)">
	<g transform="translate(-314.805 165)">
		<g transform="translate(315 166)">
			<g>
				<g>
					<defs>
						<rect id="SVGID_1_" x="-0.2" y="1021" width="1267.6" height="795.3"/>
					</defs>
					<clipPath id="SVGID_00000036934348149275282320000016428162298205376653_">
						<use xlink:href="#SVGID_1_"  style="overflow:visible;"/>
					</clipPath>
					<g transform="translate(0 0)" style="clip-path:url(#SVGID_00000036934348149275282320000016428162298205376653_);">
						
							<linearGradient id="SVGID_00000000184553996626203880000007965143034705489034_" gradientUnits="userSpaceOnUse" x1="4572.2881" y1="0.4806" x2="4572.2881" y2="-1.613840e-02" gradientTransform="matrix(2726.3721 0 0 626.94 -12465327 1300.658)">
							<stop  offset="0" style="stop-color:#6BAEE0"/>
							<stop  offset="1" style="stop-color:#6BAEE0"/>
							<stop  offset="1" style="stop-color:#A5A5A5"/>
						</linearGradient>
						<path style="fill:url(#SVGID_00000000184553996626203880000007965143034705489034_);" d="M1146.1,1341.3
							c-102-11.9-123.1-50.8-260.9-50.8c-162.8,0-162.8,54.2-325.5,54.2s-162.7-54.2-325.4-54.2c-162.7,0-162.7,54.2-325.4,54.2
							c-99.8,0-138.4-20.4-190.9-36.2v293.4h1428V1341.3z"/>
					</g>
				</g>
			</g>
		</g>
	</g>
	<g transform="translate(1062.195 165)">
		<g transform="translate(315 166)">
			<g>
				<g>
					<defs>
						<rect id="SVGID_00000099639385366963555940000004936415609471558057_" x="-655.9" y="1021" width="1267.6" height="795.3"/>
					</defs>
					<clipPath id="SVGID_00000115483793417092544440000016018706930081917107_">
						<use xlink:href="#SVGID_00000099639385366963555940000004936415609471558057_"  style="overflow:visible;"/>
					</clipPath>
					<g transform="translate(0 0)" style="clip-path:url(#SVGID_00000115483793417092544440000016018706930081917107_);">
						
							<linearGradient id="SVGID_00000132807297607586007810000013947209500902648981_" gradientUnits="userSpaceOnUse" x1="1818.0477" y1="0.4806" x2="1818.0477" y2="-1.613840e-02" gradientTransform="matrix(2726.3721 0 0 626.94 -4956898 1300.658)">
							<stop  offset="0" style="stop-color:#6BAEE0"/>
							<stop  offset="1" style="stop-color:#6BAEE0"/>
							<stop  offset="1" style="stop-color:#A5A5A5"/>
						</linearGradient>
						<path style="fill:url(#SVGID_00000132807297607586007810000013947209500902648981_);" d="M490.4,1341.3
							c-102-11.9-123.1-50.8-260.9-50.8c-162.8,0-162.8,54.2-325.5,54.2s-162.7-54.2-325.4-54.2s-162.7,54.2-325.4,54.2
							c-99.8,0-138.4-20.4-190.9-36.2v293.4h1428V1341.3z"/>
					</g>
				</g>
			</g>
		</g>
	</g>
	<g transform="translate(2435.195 165)">
		<g transform="translate(315 166)">
			<g>
				<g>
					<defs>
						<rect id="SVGID_00000149382085345214269220000005271919008406358206_" x="-1309.8" y="1021" width="1267.6" height="795.3"/>
					</defs>
					<clipPath id="SVGID_00000036954455465248633560000009796408426052007821_">
						<use xlink:href="#SVGID_00000149382085345214269220000005271919008406358206_"  style="overflow:visible;"/>
					</clipPath>
					<g transform="translate(0 0)" style="clip-path:url(#SVGID_00000036954455465248633560000009796408426052007821_);">
						
							<linearGradient id="SVGID_00000087382199698404202550000004078353138526962089_" gradientUnits="userSpaceOnUse" x1="-928.1924" y1="0.4806" x2="-928.1924" y2="-1.613840e-02" gradientTransform="matrix(2726.3721 0 0 626.94 2529720.25 1300.658)">
							<stop  offset="0" style="stop-color:#6BAEE0"/>
							<stop  offset="1" style="stop-color:#6BAEE0"/>
							<stop  offset="1" style="stop-color:#A5A5A5"/>
						</linearGradient>
						<path style="fill:url(#SVGID_00000087382199698404202550000004078353138526962089_);" d="M-163.4,1341.3
							c-102-11.9-123.1-50.8-260.9-50.8c-162.8,0-162.8,54.2-325.5,54.2s-162.7-54.2-325.5-54.2c-162.7,0-162.7,54.2-325.4,54.2
							c-99.8,0-138.4-20.4-190.9-36.2v293.4h1428L-163.4,1341.3L-163.4,1341.3z"/>
					</g>
				</g>
			</g>
		</g>
	</g>
</g>
<g transform="translate(0 -331)">
	<g transform="translate(-314.805 165)">
		<g transform="translate(315 166)">
			<g>
				<g>
					<defs>
						<rect id="SVGID_00000065040820009248993880000009172733017656170174_" x="2584.9" y="1021" width="1267.6" height="795.3"/>
					</defs>
					<clipPath id="SVGID_00000152265636265695242990000008113399830817659275_">
						<use xlink:href="#SVGID_00000065040820009248993880000009172733017656170174_"  style="overflow:visible;"/>
					</clipPath>
					<g transform="translate(0 0)" style="clip-path:url(#SVGID_00000152265636265695242990000008113399830817659275_);">
						
							<linearGradient id="SVGID_00000075873202888875687090000010653226281016986292_" gradientUnits="userSpaceOnUse" x1="4573.2363" y1="0.4806" x2="4573.2363" y2="-1.613840e-02" gradientTransform="matrix(2726.3721 0 0 626.94 -12465327 1300.658)">
							<stop  offset="0" style="stop-color:#6BAEE0"/>
							<stop  offset="1" style="stop-color:#6BAEE0"/>
							<stop  offset="1" style="stop-color:#A5A5A5"/>
						</linearGradient>
						<path style="fill:url(#SVGID_00000075873202888875687090000010653226281016986292_);" d="M3731.2,1341.3
							c-102-11.9-123.1-50.8-260.9-50.8c-162.8,0-162.8,54.2-325.5,54.2s-162.7-54.2-325.4-54.2c-162.7,0-162.7,54.2-325.4,54.2
							c-99.8,0-138.4-20.4-190.9-36.2v293.4h1428V1341.3z"/>
					</g>
				</g>
			</g>
		</g>
	</g>
	<g transform="translate(1062.195 165)">
		<g transform="translate(315 166)">
			<g>
				<g>
					<defs>
						<rect id="SVGID_00000034807525594388547480000005531452840636236970_" x="1929.1" y="1021" width="1267.6" height="795.3"/>
					</defs>
					<clipPath id="SVGID_00000029755053397870969460000003842556100815308977_">
						<use xlink:href="#SVGID_00000034807525594388547480000005531452840636236970_"  style="overflow:visible;"/>
					</clipPath>
					<g transform="translate(0 0)" style="clip-path:url(#SVGID_00000029755053397870969460000003842556100815308977_);">
						
							<linearGradient id="SVGID_00000098211097857802061510000006935072997701833867_" gradientUnits="userSpaceOnUse" x1="1818.9958" y1="0.4806" x2="1818.9958" y2="-1.613840e-02" gradientTransform="matrix(2726.3721 0 0 626.94 -4956898 1300.658)">
							<stop  offset="0" style="stop-color:#6BAEE0"/>
							<stop  offset="1" style="stop-color:#6BAEE0"/>
							<stop  offset="1" style="stop-color:#A5A5A5"/>
						</linearGradient>
						<path style="fill:url(#SVGID_00000098211097857802061510000006935072997701833867_);" d="M3075.4,1341.3
							c-102-11.9-123.1-50.8-260.9-50.8c-162.8,0-162.8,54.2-325.5,54.2s-162.7-54.2-325.4-54.2s-162.7,54.2-325.4,54.2
							c-99.8,0-138.4-20.4-190.9-36.2v293.4h1428V1341.3z"/>
					</g>
				</g>
			</g>
		</g>
	</g>
	<g transform="translate(2435.195 165)">
		<g transform="translate(315 166)">
			<g>
				<g>
					<defs>
						<rect id="SVGID_00000123431871351204001860000001316204701518126758_" x="1275.3" y="1021" width="1267.6" height="795.3"/>
					</defs>
					<clipPath id="SVGID_00000135693402989704667140000013946923483322497422_">
						<use xlink:href="#SVGID_00000123431871351204001860000001316204701518126758_"  style="overflow:visible;"/>
					</clipPath>
					<g transform="translate(0 0)" style="clip-path:url(#SVGID_00000135693402989704667140000013946923483322497422_);">
						
							<linearGradient id="SVGID_00000124864350506979999680000008599430061255822763_" gradientUnits="userSpaceOnUse" x1="-927.2442" y1="0.4806" x2="-927.2442" y2="-1.613840e-02" gradientTransform="matrix(2726.3721 0 0 626.94 2529720.25 1300.658)">
							<stop  offset="0" style="stop-color:#6BAEE0"/>
							<stop  offset="1" style="stop-color:#6BAEE0"/>
							<stop  offset="1" style="stop-color:#A5A5A5"/>
						</linearGradient>
						<path style="fill:url(#SVGID_00000124864350506979999680000008599430061255822763_);" d="M2421.6,1341.3
							c-102-11.9-123.1-50.8-260.9-50.8c-162.8,0-162.8,54.2-325.5,54.2s-162.7-54.2-325.5-54.2c-162.7,0-162.7,54.2-325.4,54.2
							c-99.8,0-138.4-20.4-190.9-36.2v293.4h1428L2421.6,1341.3L2421.6,1341.3z"/>
					</g>
				</g>
			</g>
		</g>
	</g>
</g>
</svg>
