<svg xmlns="http://www.w3.org/2000/svg" xmlns:xlink="http://www.w3.org/1999/xlink" width="5170" height="1601" viewBox="0 0 5170 1601"><defs><clipPath id="a"><rect width="2420" height="1601" transform="translate(-0.195)"/></clipPath><linearGradient id="b" x1="0.5" y1="1" x2="0.5" gradientUnits="objectBoundingBox"><stop offset="0" stop-color="#6baee0"/><stop offset="1" stop-color="#6baee0"/><stop offset="1" stop-color="#a5a5a5"/></linearGradient></defs><g transform="translate(0 -331)"><g transform="translate(-314.805 165)"><g transform="translate(315 166)"><g transform="translate(0 0)" clip-path="url(#a)"><path d="M2697.052,197.628C2502.443,173.609,2462.065,95.38,2199.077,95.38c-310.7,0-310.7,109.142-621.348,109.142S1267.083,95.38,956.381,95.38c-310.59,0-310.59,109.142-621.236,109.142-190.577,0-264.276-41.088-364.465-72.835V722.32H2697.052Z" transform="translate(-508.689 447.299)" fill="url(#b)"/></g></g></g><g transform="translate(1062.195 165)"><g transform="translate(315 166)"><g transform="translate(0 0)" clip-path="url(#a)"><path d="M2697.052,197.628C2502.443,173.609,2462.065,95.38,2199.077,95.38c-310.7,0-310.7,109.142-621.348,109.142S1267.083,95.38,956.381,95.38c-310.59,0-310.59,109.142-621.236,109.142-190.577,0-264.276-41.088-364.465-72.835V722.32H2697.052Z" transform="translate(-508.689 447.299)" fill="url(#b)"/></g></g></g><g transform="translate(2435.195 165)"><g transform="translate(315 166)"><g transform="translate(0 0)" clip-path="url(#a)"><path d="M2697.052,197.628C2502.443,173.609,2462.065,95.38,2199.077,95.38c-310.7,0-310.7,109.142-621.348,109.142S1267.083,95.38,956.381,95.38c-310.59,0-310.59,109.142-621.236,109.142-190.577,0-264.276-41.088-364.465-72.835V722.32H2697.052Z" transform="translate(-508.689 447.299)" fill="url(#b)"/></g></g></g></g></svg>