<?xml version="1.0" encoding="UTF-8"?>
<svg id="Capa_1" data-name="Capa 1" xmlns="http://www.w3.org/2000/svg" viewBox="0 0 2560 182.4">
  <defs>
    <style>
      .cls-1 {
        fill: #8ac4ec;
      }
    </style>
  </defs>
  <g>
    <g>
      <path class="cls-1" d="M0,29.5C68.17,22.09,84.28,.3,179.24,.3c114.4,0,114.4,31.65,228.79,31.65S522.42,.3,636.82,.3s114.4,31.65,228.79,31.65c70.15,0,97.29-11.92,134.18-21.08V182.1H0V29.5Z"/>
      <path class="cls-1" d="M1279.94,29.2c-70.45-7.41-87.2-29.2-185.31-29.2-118.31,0-118.31,31.65-236.61,31.65S739.72,0,621.41,0s-118.25,31.65-236.55,31.65c-72.61,0-100.62-11.92-138.79-21.08V181.8H1280V29.2h-.06Z"/>
    </g>
    <path class="cls-1" d="M1257.26,29.35C1186.81,21.94,1170.06,.15,1071.95,.15c-118.31,0-118.31,31.65-236.61,31.65S717.03,.15,598.73,.15s-118.25,31.65-236.55,31.65c-72.61,0-100.62-11.92-138.79-21.08V181.95H1257.26V29.35Z"/>
  </g>
  <g>
    <g>
      <path class="cls-1" d="M1280,29.8c68.17-7.41,84.28-29.2,179.24-29.2,114.4,0,114.4,31.65,228.79,31.65S1802.42,.6,1916.82,.6s114.4,31.65,228.79,31.65c70.15,0,97.29-11.92,134.18-21.08V182.4h-999.79V29.8Z"/>
      <path class="cls-1" d="M2559.94,29.5c-70.45-7.41-87.2-29.2-185.31-29.2-118.31,0-118.31,31.65-236.61,31.65S2019.72,.3,1901.41,.3s-118.25,31.65-236.55,31.65c-72.61,0-100.62-11.92-138.79-21.08V182.1h1033.93V29.5h-.06Z"/>
    </g>
    <path class="cls-1" d="M2537.26,29.65c-70.45-7.41-87.2-29.2-185.31-29.2-118.31,0-118.31,31.65-236.61,31.65S1997.03,.45,1878.73,.45s-118.25,31.65-236.55,31.65c-72.61,0-100.62-11.92-138.79-21.08V182.25h1033.88V29.65Z"/>
  </g>
</svg>