<svg xmlns="http://www.w3.org/2000/svg" width="5208.115" height="627.94" viewBox="0 0 5208.115 627.94"><g transform="translate(277.115 -840.552)"><path d="M2687.805,245.446C2502.773,219.871,2458.923,144.7,2201.087,144.7c-310.7,0-310.7,109.142-621.348,109.142S1269.093,144.7,958.391,144.7c-310.59,0-310.59,109.142-621.236,109.142-190.577,0-264.276-41.088-364.465-72.835V771.64H2687.805Z" transform="translate(-249.805 695.852)" fill="#85c7f9"/><path d="M2687.805,245.446C2502.773,219.871,2458.923,144.7,2201.087,144.7c-310.7,0-310.7,109.142-621.348,109.142S1269.093,144.7,958.391,144.7c-310.59,0-310.59,109.142-621.236,109.142-190.577,0-264.276-41.088-364.465-72.835V771.64H2687.805Z" transform="translate(983.195 695.852)" fill="#85c7f9"/><path d="M2687.805,245.446C2502.773,219.871,2458.923,144.7,2201.087,144.7c-310.7,0-310.7,109.142-621.348,109.142S1269.093,144.7,958.391,144.7c-310.59,0-310.59,109.142-621.236,109.142-190.577,0-264.276-41.088-364.465-72.835V771.64H2687.805Z" transform="translate(2243.195 696.852)" fill="#85c7f9"/></g></svg>