<?xml version="1.0" encoding="utf-8"?>
<!-- Generator: Adobe Illustrator 26.4.1, SVG Export Plug-In . SVG Version: 6.00 Build 0)  -->
<svg version="1.1" id="Capa_1" xmlns="http://www.w3.org/2000/svg" xmlns:xlink="http://www.w3.org/1999/xlink" x="0px" y="0px"
	 viewBox="0 0 5202.3 627" style="enable-background:new 0 0 5202.3 627;" xml:space="preserve">
<style type="text/css">
	.st0{fill:url(#SVGID_1_);}
	.st1{fill:url(#SVGID_00000027597157412150325570000005120909831302590131_);}
	.st2{fill:url(#SVGID_00000097481031861104551690000006894806674653664177_);}
	.st3{fill:url(#SVGID_00000098930337598140579720000002042091629739615653_);}
	.st4{fill:url(#SVGID_00000014599090323199772400000016360991792455682216_);}
	.st5{fill:url(#SVGID_00000178202356199834339480000008120764353626001813_);}
</style>
<g>
	
		<linearGradient id="SVGID_1_" gradientUnits="userSpaceOnUse" x1="4604.3335" y1="1.3411" x2="4604.3335" y2="0.8411" gradientTransform="matrix(2736.7878 0 0 626.998 -12599813 -213.9873)">
		<stop  offset="0" style="stop-color:#A2A8E2"/>
		<stop  offset="1" style="stop-color:#66D9F6"/>
	</linearGradient>
	<path class="st0" d="M1848.6,368c-152.1,0-152.1-54.6-304.2-54.6c-152.2,0-152.2,54.6-304.3,54.6s-152.1-54.6-304.3-54.6
		c-152.1,0-152.1,54.6-304.2,54.6c-11.2,0-21.4-0.3-31.1-0.9v259.8h1340.3V359.1C1916.6,364.4,1887.6,368,1848.6,368z"/>
	
		<linearGradient id="SVGID_00000019668401063934348740000000208283806975824575_" gradientUnits="userSpaceOnUse" x1="4605.4277" y1="1.3458" x2="4605.4277" y2="0.8458" gradientTransform="matrix(-2023.9427 0 0 626.998 9321758 -213.9873)">
		<stop  offset="0" style="stop-color:#A2A8E2"/>
		<stop  offset="1" style="stop-color:#66D9F6"/>
	</linearGradient>
	<path style="fill:url(#SVGID_00000019668401063934348740000000208283806975824575_);" d="M86.5,370.9
		c144.6,0,144.6-54.6,289.2-54.6s144.6,54.6,289.2,54.6s144.6-54.6,289.2-54.6c144.6,0,144.6,54.6,289.1,54.6
		c10.6,0,20.4-0.3,29.5-0.9v259.8H-1.1L-1.7,370C0.6,370.6,49.4,370.9,86.5,370.9z"/>
	
		<linearGradient id="SVGID_00000107561047329858230750000002021761643954260922_" gradientUnits="userSpaceOnUse" x1="4602.9326" y1="1.3458" x2="4602.9326" y2="0.8458" gradientTransform="matrix(2208.668 0 0 626.998 -10164489 -213.9873)">
		<stop  offset="0" style="stop-color:#A2A8E2"/>
		<stop  offset="1" style="stop-color:#66D9F6"/>
	</linearGradient>
	<path style="fill:url(#SVGID_00000107561047329858230750000002021761643954260922_);" d="M2499.1,370.9c-168,0-168-54.6-336.1-54.6
		s-168.1,54.6-336.2,54.6s-168.1-54.6-336.2-54.6c-168,0-168,54.6-336.1,54.6c-12.3,0-23.7-0.3-34.3-0.9v259.8h1480.7l0.7-259.8
		C2598.9,370.6,2542.2,370.9,2499.1,370.9z"/>
</g>
<g>
	
		<linearGradient id="SVGID_00000070108077362442752600000017711752269521756291_" gradientUnits="userSpaceOnUse" x1="4605.2842" y1="1.3388" x2="4605.2842" y2="0.8388" gradientTransform="matrix(2736.7878 0 0 626.998 -12599813 -213.9873)">
		<stop  offset="0" style="stop-color:#A2A8E2"/>
		<stop  offset="1" style="stop-color:#66D9F6"/>
	</linearGradient>
	<path style="fill:url(#SVGID_00000070108077362442752600000017711752269521756291_);" d="M4451,366.6
		c-152.1,0-152.1-54.6-304.2-54.6c-152.2,0-152.2,54.6-304.3,54.6s-152.1-54.6-304.3-54.6c-152.1,0-152.1,54.6-304.2,54.6
		c-11.2,0-21.4-0.3-31.1-0.9v259.8h1340.3V357.6C4519,363,4490,366.6,4451,366.6z"/>
	
		<linearGradient id="SVGID_00000021091315961719882480000005701094079998020506_" gradientUnits="userSpaceOnUse" x1="4604.1421" y1="1.3434" x2="4604.1421" y2="0.8434" gradientTransform="matrix(-2023.9427 0 0 626.998 9321758 -213.9873)">
		<stop  offset="0" style="stop-color:#A2A8E2"/>
		<stop  offset="1" style="stop-color:#66D9F6"/>
	</linearGradient>
	<path style="fill:url(#SVGID_00000021091315961719882480000005701094079998020506_);" d="M2688.9,369.4
		c144.6,0,144.6-54.6,289.2-54.6c144.6,0,144.6,54.6,289.2,54.6c144.6,0,144.6-54.6,289.2-54.6c144.6,0,144.6,54.6,289.1,54.6
		c10.6,0,20.4-0.3,29.5-0.9v259.8H2601.3l-0.6-259.8C2603,369.2,2651.8,369.4,2688.9,369.4z"/>
	
		<linearGradient id="SVGID_00000136409587561262165420000005058080589572628608_" gradientUnits="userSpaceOnUse" x1="4604.1108" y1="1.3434" x2="4604.1108" y2="0.8434" gradientTransform="matrix(2208.668 0 0 626.998 -10164489 -213.9873)">
		<stop  offset="0" style="stop-color:#A2A8E2"/>
		<stop  offset="1" style="stop-color:#66D9F6"/>
	</linearGradient>
	<path style="fill:url(#SVGID_00000136409587561262165420000005058080589572628608_);" d="M5101.5,369.4c-168,0-168-54.6-336.1-54.6
		c-168.1,0-168.1,54.6-336.2,54.6c-168.1,0-168.1-54.6-336.2-54.6c-168,0-168,54.6-336.1,54.6c-12.3,0-23.7-0.3-34.3-0.9v259.8
		h1480.7l0.7-259.8C5201.3,369.2,5144.6,369.4,5101.5,369.4z"/>
</g>
</svg>
